<svg width="197" height="64" fill="none" xmlns="http://www.w3.org/2000/svg"><path fill="url(#paint0_linear_1262_2654)" d="M0 0h197v64H0z"/><path d="M17.154 41.51H13.56v8.95h24.58v-3.595H17.154V41.51zm7.154-27.952h-10.75v24.394h3.596v-20.8h7.154v-3.594zm32.065 3.595h14.271v7.153h3.578V13.558H56.373v3.595zm-3.559-3.595H27.867v3.595h24.947v-3.595zM41.68 50.46h32.542V27.864h-3.578v19.001H41.68v3.595z" fill="#00D5FF"/><path d="M10 10v44h67.78V10H10zm42.814 3.558v3.595H27.867v-3.595h24.947zm.019 26.173h10.676V24.306h-7.136V20.73h10.713v22.596H20.713V20.71h3.595v19.001h3.559V27.827h3.577v11.885h3.558V24.27h-7.135v-3.558h10.676v19.001h10.676V24.27H45.66v11.885h-3.577V20.711h10.713v19.001l.037.019zm3.558-3.558v-8.327h3.577v8.327h-3.577zM13.56 13.558h10.75v3.595h-7.155v20.78H13.56V13.558zm0 36.902v-8.95h3.595v5.355h20.967v3.595H13.559zm60.663 0H41.698v-3.595h28.946v-19h3.578V50.46zm0-26.154h-3.578v-7.135H56.373v-3.595h17.849v10.748-.018zm13.576-2.779h1.43v6.695H87.8v-6.695zm7.906 0h.44l4.072 3.98v-3.98h1.358v6.695h-.477l-4.036-3.98v3.98h-1.357v-6.695zm16.601 1.56c-.294-.129-1.266-.44-2.091-.44-.826 0-1.156.073-1.156.77 0 1.375 3.632.256 3.632 2.88 0 2.622-1.156 2.108-2.587 2.108-1.43 0-1.669-.165-2.366-.477v-1.412c.55.294 1.431.587 2.22.587.788 0 1.229-.202 1.229-.789 0-1.338-3.632-.183-3.632-2.787 0-2.605 1.192-2.11 2.66-2.11 1.467 0 1.504.147 2.072.367v1.32l.019-.017zm6.328 2.329v-3.907h1.431v3.834c0 1.082.569 1.632 1.468 1.632.898 0 1.467-.55 1.467-1.633V21.51h1.431v3.907c0 1.87-1.229 2.953-2.88 2.953-1.651 0-2.88-1.082-2.88-2.953h-.037zm13.593 2.788h-1.412v-6.695h2.714c1.688 0 2.44.807 2.44 2.036s-.257 1.467-1.027 1.87l1.522 2.77h-1.577l-1.284-2.42h-.422c-.294 0-.605-.019-.954-.056v2.495zm0-3.687c.294.055.642.11.972.11.679 0 1.321-.201 1.321-.99 0-.789-.459-.88-1.229-.88h-1.064v1.76zm9.631 3.687l3.301-6.695h.386l3.393 6.695h-1.559l-.55-1.174h-2.954l-.532 1.174h-1.485zm3.485-4.347l-.954 2.054h1.908l-.954-2.054zm8.933-2.33h.44l4.073 3.98v-3.98h1.357v6.695h-.477l-4.035-3.98v3.98h-1.358v-6.695zm17.739 6.346c-.679.367-1.413.514-2.202.514-2.091 0-3.503-1.504-3.503-3.485 0-1.98 1.467-3.503 3.668-3.503 2.202 0 1.321.128 1.982.422v1.375c-.606-.33-1.211-.422-1.871-.422-1.34 0-2.22.79-2.22 2.146.037 1.376 1.009 2.11 2.128 2.11 1.119 0 1.467-.239 2.018-.606v1.468-.019zm5.98-6.345h5.008v1.247h-3.614v1.43h3.155v1.248h-3.155v1.503h3.65v1.248h-5.063v-6.695l.019.019zM87.799 35.742a49.879 49.879 0 012.366-.055c1.87 0 2.696.66 2.696 1.669s-.348 1.229-.99 1.522c.77.22 1.229.716 1.229 1.578 0 1.339-1.21 2.017-3.027 2.017-1.816 0-1.76-.018-2.293-.055V35.76l.019-.018zm1.43 1.119v1.632h.936c.697 0 1.192-.293 1.192-.862 0-.568-.477-.788-1.266-.788-.788 0-.605 0-.862.018zm0 2.714v1.706c.312.018.624.037.918.037.99 0 1.485-.294 1.485-.917 0-.624-.513-.826-1.412-.826h-.99zm11.41 2.861h-1.412v-6.694h2.715c1.687 0 2.439.807 2.439 2.036 0 1.228-.257 1.467-1.027 1.87l1.523 2.77h-1.578l-1.284-2.421h-.422a9.29 9.29 0 01-.954-.055v2.494zm0-3.686c.294.055.642.11.972.11.679 0 1.321-.202 1.321-.99 0-.79-.458-.881-1.229-.881h-1.064v1.76zm9.704.367c.018-2.073 1.449-3.485 3.559-3.485 2.109 0 3.522 1.412 3.54 3.485-.018 2.054-1.412 3.503-3.54 3.503s-3.541-1.43-3.559-3.503zm5.595 0c0-1.34-.881-2.183-2.055-2.183-1.174 0-2.036.844-2.036 2.183s.862 2.164 2.036 2.164 2.055-.825 2.055-2.164zm7.594-3.375h1.431v2.788h.33l2.33-2.788h1.669l-2.77 3.228 3.082 3.466h-1.871l-2.44-2.806h-.348v2.806h-1.431v-6.694h.018zm11.483 0h5.008v1.247h-3.614v1.43h3.156v1.248h-3.156v1.504h3.651v1.247h-5.063v-6.694l.018.018zm12.291 6.694h-1.413v-6.694h2.715c1.688 0 2.44.807 2.44 2.036 0 1.228-.257 1.467-1.027 1.87l1.522 2.77h-1.577l-1.285-2.421h-.421c-.294 0-.606-.019-.954-.055v2.494zm0-3.686c.293.055.642.11.972.11.679 0 1.321-.202 1.321-.99 0-.79-.459-.881-1.229-.881h-1.064v1.76z" fill="#000"/><defs><linearGradient id="paint0_linear_1262_2654" x1="0" y1="0" x2="196.154" y2="66.381" gradientUnits="userSpaceOnUse"><stop stop-color="#fff"/><stop offset="1" stop-color="#A0AEC0"/></linearGradient></defs></svg>