<svg width="194" height="50" fill="none" xmlns="http://www.w3.org/2000/svg"><g clip-path="url(#clip0_2020_757)"><path d="M87.178 13.089h1.604v7.607h-1.604V13.09zm8.865 0h.494l4.567 4.522V13.09h1.522v7.607h-.535l-4.525-4.523v4.523h-1.523V13.09zm18.617 1.771c-.329-.146-1.42-.5-2.345-.5-.926 0-1.296.084-1.296.876 0 1.563 4.073.291 4.073 3.272 0 2.98-1.296 2.396-2.901 2.396-1.604 0-1.872-.187-2.653-.541v-1.605c.617.333 1.604.667 2.489.667.884 0 1.378-.23 1.378-.896 0-1.522-4.073-.209-4.073-3.168 0-2.96 1.337-2.397 2.983-2.397 1.645 0 1.686.166 2.324.417v1.5l.021-.02zm7.097 2.647v-4.44h1.604v4.357c0 1.23.638 1.855 1.646 1.855s1.645-.625 1.645-1.855v-4.356h1.605v4.44c0 2.125-1.378 3.355-3.23 3.355-1.851 0-3.229-1.23-3.229-3.356h-.041zm15.242 3.168h-1.584v-7.607h3.045c1.892 0 2.736.917 2.736 2.313 0 1.397-.288 1.668-1.152 2.126l1.707 3.147h-1.769l-1.44-2.75h-.473a9.99 9.99 0 01-1.07-.063v2.834zm0-4.189c.329.063.72.125 1.091.125.761 0 1.481-.23 1.481-1.125 0-.897-.515-1-1.379-1h-1.193v2zm10.8 4.189l3.702-7.607h.432l3.806 7.607h-1.749l-.617-1.334h-3.311l-.597 1.334h-1.666zm3.908-4.94l-1.07 2.335h2.14l-1.07-2.334zm10.018-2.646h.494l4.566 4.522V13.09h1.522v7.607h-.534l-4.526-4.523v4.523h-1.522V13.09zm19.892 7.211c-.762.417-1.584.584-2.469.584-2.345 0-3.929-1.71-3.929-3.96 0-2.251 1.646-3.981 4.114-3.981 2.469 0 1.481.146 2.222.48v1.562c-.679-.375-1.358-.479-2.098-.479-1.502 0-2.489.896-2.489 2.439.041 1.563 1.131 2.396 2.386 2.396 1.255 0 1.645-.27 2.263-.687v1.667-.02zm6.706-7.211h5.615v1.417h-4.052v1.626h3.538v1.417h-3.538v1.709h4.093v1.417h-5.677v-7.607l.021.02zM87.178 29.241a55.963 55.963 0 012.653-.062c2.098 0 3.024.75 3.024 1.897 0 1.146-.39 1.396-1.11 1.73.863.25 1.377.812 1.377 1.792 0 1.521-1.357 2.292-3.394 2.292-2.036 0-1.974-.02-2.571-.062v-7.566l.02-.02zm1.604 1.272v1.855h1.05c.78 0 1.336-.334 1.336-.98 0-.646-.535-.896-1.42-.896-.884 0-.678 0-.966.02zm0 3.084v1.939c.35.02.7.041 1.029.041 1.11 0 1.666-.333 1.666-1.042 0-.708-.576-.938-1.584-.938h-1.11zm12.795 3.252h-1.584V29.24h3.044c1.893 0 2.736.917 2.736 2.314 0 1.396-.288 1.667-1.152 2.126l1.708 3.147h-1.769l-1.44-2.751h-.473c-.33 0-.679-.021-1.07-.063v2.835zm0-4.19c.329.063.72.126 1.09.126.761 0 1.481-.23 1.481-1.126 0-.896-.514-1-1.378-1h-1.193v2zm10.882.417c.02-2.355 1.625-3.96 3.99-3.96 2.366 0 3.95 1.605 3.97 3.96-.02 2.335-1.583 3.981-3.97 3.981-2.386 0-3.97-1.626-3.99-3.98zm6.274 0c0-1.521-.988-2.48-2.304-2.48-1.317 0-2.284.959-2.284 2.48 0 1.522.967 2.46 2.284 2.46 1.316 0 2.304-.938 2.304-2.46zm8.516-3.835h1.604v3.168h.371l2.612-3.168h1.872l-3.106 3.669 3.456 3.939h-2.098l-2.736-3.19h-.391v3.19h-1.605V29.24h.021zm12.877 0h5.616v1.418h-4.053v1.625h3.538v1.418h-3.538v1.709h4.094v1.417h-5.678V29.22l.021.021zm13.782 7.608h-1.584V29.24h3.045c1.892 0 2.736.917 2.736 2.314 0 1.396-.288 1.667-1.152 2.126l1.707 3.147h-1.769l-1.44-2.751h-.473a9.99 9.99 0 01-1.07-.063v2.835zm0-4.19c.329.063.72.126 1.09.126.762 0 1.481-.23 1.481-1.126 0-.896-.514-1-1.378-1h-1.193v2z" fill="#000"/><path d="M8.022 35.807H3.991v10.17h27.564v-4.084H8.022v-6.086zm8.023-31.764H3.991v27.72h4.031V8.128h8.023V4.043zm35.957 4.085h16.004v8.129h4.011V4.043H52.002v4.085zm-3.991-4.085H20.036v4.085H48.01V4.043zM35.525 45.977h36.492V20.3h-4.011v21.592h-32.48v4.085z" fill="#00D5FF"/><path d="M0 0v50h76.008V0H0zm48.011 4.043v4.085H20.036V4.043H48.01zm.021 29.742h11.972V16.257h-8.002v-4.064h12.013V37.87H12.013V12.172h4.032v21.592h3.99V20.258h4.012v13.506h3.99V16.215h-8.001v-4.043h11.972v21.592H43.98V16.215h-3.991v13.506h-4.011V12.17H47.99v21.593l.041.02zm3.99-4.043v-9.463h4.012v9.463h-4.011zM3.992 4.043h12.054v4.085H8.022v23.614H3.991V4.043zm0 41.934v-10.17h4.031v6.085h23.512v4.085H3.992zm68.026 0H35.546v-4.084h32.46V20.3h4.011v25.677zm0-29.72h-4.011V8.149H52.002V4.064h20.015v12.214-.021z" fill="#000"/></g><defs><clipPath id="clip0_2020_757"><path fill="#fff" d="M0 0h194v50H0z"/></clipPath></defs></svg>