<svg width="76" height="76" fill="none" xmlns="http://www.w3.org/2000/svg"><path d="M24.5 66.75H20V69h4.5v-2.25zM16.625 6h-2.25v2.25h2.25V6zm13.5 0h-11.25v2.25h11.25V6zm11.25 4.5H3.125v2.25h38.25V10.5zm0 51.75H3.125v2.25h38.25v-2.25z" fill="#C6CEDA"/><path d="M38 73.5H6.5A4.499 4.499 0 012 69V6a4.5 4.5 0 014.5-4.5H38A4.5 4.5 0 0142.5 6v47.25h-2.25V6A2.257 2.257 0 0038 3.75H6.5A2.257 2.257 0 004.25 6v63a2.257 2.257 0 002.25 2.25H38A2.257 2.257 0 0040.25 69v-9h2.25v9a4.5 4.5 0 01-4.5 4.5zm21.375-36a1.12 1.12 0 01-.619-.191c-.574-.383-14.006-9.461-14.006-20.059V10.5a5.627 5.627 0 015.625-5.625v2.25A3.385 3.385 0 0047 10.5v6.75c0 8.201 9.776 15.862 12.375 17.752 2.599-1.89 12.375-9.55 12.375-17.752V10.5a3.385 3.385 0 00-3.375-3.375v-2.25A5.627 5.627 0 0174 10.5v6.75c0 10.609-13.432 19.676-14.006 20.059a1.143 1.143 0 01-.619.191z" fill="#C6CEDA"/><path d="M53.75 10.5H51.5a2.257 2.257 0 01-2.25-2.25v-4.5A2.257 2.257 0 0151.5 1.5h2.25A2.257 2.257 0 0156 3.75v4.5a2.257 2.257 0 01-2.25 2.25zM51.5 3.75v4.5h2.25v-4.5H51.5zm15.75 6.75H65a2.257 2.257 0 01-2.25-2.25v-4.5A2.257 2.257 0 0165 1.5h2.25a2.257 2.257 0 012.25 2.25v4.5a2.257 2.257 0 01-2.25 2.25zM65 3.75v4.5h2.25v-4.5H65zM59.375 28.5c-8.066 0-14.625-5.051-14.625-11.25H47c0 4.961 5.546 9 12.375 9s12.375-4.039 12.375-9H74c0 6.199-6.559 11.25-14.625 11.25zM22.25 33c-4.343 0-7.875-3.532-7.875-7.875s3.532-7.875 7.875-7.875 7.875 3.532 7.875 7.875S26.593 33 22.25 33zm0-13.5a5.627 5.627 0 00-5.625 5.625 5.627 5.627 0 005.625 5.625 5.627 5.627 0 005.625-5.625A5.627 5.627 0 0022.25 19.5z" fill="#C6CEDA"/><path d="M22.25 27.375a2.25 2.25 0 100-4.5 2.25 2.25 0 000 4.5zM56 70.125a4.499 4.499 0 01-4.5-4.5V46.5a2.257 2.257 0 00-2.25-2.25A2.257 2.257 0 0047 46.5v6.75a4.5 4.5 0 01-4.5 4.5H13.25a4.499 4.499 0 01-4.5-4.5 4.5 4.5 0 014.5-4.5h18a2.257 2.257 0 002.25-2.25 2.257 2.257 0 00-2.25-2.25h-5.625a4.499 4.499 0 01-4.5-4.5v-4.5h2.25v4.5a2.257 2.257 0 002.25 2.25h5.625c2.486 0 4.5 2.014 4.5 4.5s-2.014 4.5-4.5 4.5h-18A2.257 2.257 0 0011 53.25a2.257 2.257 0 002.25 2.25H42.5a2.257 2.257 0 002.25-2.25V46.5c0-2.486 2.014-4.5 4.5-4.5s4.5 2.014 4.5 4.5v19.125a2.257 2.257 0 002.25 2.25 2.257 2.257 0 002.25-2.25v-29.25h2.25v29.25a4.5 4.5 0 01-4.5 4.5z" fill="#C6CEDA"/></svg>