<svg width="76" height="76" fill="none" xmlns="http://www.w3.org/2000/svg"><path d="M72.843 74.25H48.004V72h22.58V13.5H34.457v11.25h-2.259v-13.5h40.646v63z" fill="#C6CEDA"/><path d="M45.746 74.25h-11.29V72h9.032V29.25H5.1V72h9.032v2.25H2.843V27h42.903v47.25z" fill="#C6CEDA"/><path d="M32.198 74.25H16.39V63h15.807v11.25zM18.649 72h11.29v-6.75H18.65V72zm27.097-47.25h-9.032v-9h9.032v9zm-6.774-2.25h4.516V18h-4.516v4.5zm18.064 2.25h-9.032v-9h9.032v9zm-6.774-2.25h4.516V18h-4.516v4.5zm18.065 2.25h-9.033v-9h9.033v9zm-6.774-2.25h4.516V18h-4.517v4.5zM57.036 36h-9.032v-9h9.032v9zm-6.774-2.25h4.516v-4.5h-4.516v4.5zM68.327 36h-9.033v-9h9.033v9zm-6.774-2.25h4.516v-4.5h-4.517v4.5zm-4.517 13.5h-9.032v-9h9.032v9zM50.262 45h4.516v-4.5h-4.516V45zm18.065 2.25h-9.033v-9h9.033v9zM61.553 45h4.516v-4.5h-4.517V45zm-4.517 13.5h-9.032v-9h9.032v9zm-6.774-2.25h4.516v-4.5h-4.516v4.5zm18.065 2.25h-9.033v-9h9.033v9zm-6.774-2.25h4.516v-4.5h-4.517v4.5zm-4.517 13.5h-9.032v-9h9.032v9zm-6.774-2.25h4.516V63h-4.516v4.5zm18.065 2.25h-9.033v-9h9.033v9zm-6.774-2.25h4.516V63h-4.517v4.5zm-47.42-36H7.36v2.25h6.774V31.5zm9.032 0h-6.774v2.25h6.774V31.5zm9.032 0h-6.774v2.25h6.774V31.5zm9.033 0h-6.774v2.25h6.774V31.5zM14.133 36H7.36v2.25h6.774V36zm9.032 0h-6.774v2.25h6.774V36zm9.032 0h-6.774v2.25h6.774V36zm9.033 0h-6.774v2.25h6.774V36zm-27.097 4.5H7.36v2.25h6.774V40.5zm9.032 0h-6.774v2.25h6.774V40.5zm9.032 0h-6.774v2.25h6.774V40.5zm9.033 0h-6.774v2.25h6.774V40.5zM14.133 45H7.36v2.25h6.774V45zm9.032 0h-6.774v2.25h6.774V45zm9.032 0h-6.774v2.25h6.774V45zm9.033 0h-6.774v2.25h6.774V45zm-27.097 4.5H7.36v2.25h6.774V49.5zm9.032 0h-6.774v2.25h6.774V49.5zm9.032 0h-6.774v2.25h6.774V49.5zm9.033 0h-6.774v2.25h6.774V49.5zM14.133 54H7.36v2.25h6.774V54zm9.032 0h-6.774v2.25h6.774V54zm9.032 0h-6.774v2.25h6.774V54zm9.033 0h-6.774v2.25h6.774V54zm-27.097 4.5H7.36v2.25h6.774V58.5zm9.032 0h-6.774v2.25h6.774V58.5zm9.032 0h-6.774v2.25h6.774V58.5zm9.033 0h-6.774v2.25h6.774V58.5zM14.133 63H7.36v2.25h6.774V63zm27.097 0h-6.774v2.25h6.774V63zm0 4.5h-6.774v2.25h6.774V67.5zm-27.097 0H7.36v2.25h6.774V67.5zm4.517-56.25h-2.26v2.25h2.258v-2.25zm4.515 0h-2.258v2.25h2.258v-2.25zm4.516 0h-2.258v2.25h2.258v-2.25z" fill="#C6CEDA"/><path d="M9.617 24.75H7.359V2.25h46.29V9h-2.258V4.5H9.617v20.25z" fill="#C6CEDA"/><path d="M14.133 15.75h-2.258v-9h11.29V9h-9.032v6.75z" fill="#C6CEDA"/></svg>