<svg width="76" height="76" fill="none" xmlns="http://www.w3.org/2000/svg"><path d="M57.194 72.377h-2.258v-3.155L40.337 32.375l2.1-.831 14.757 37.252v3.581zm-36.129 0h-2.258v-3.581l.079-.202 13.548-33.682 2.1.83-13.47 33.48v3.155zm31.613 0H50.42V69.29L38 46.656 25.58 69.29v3.087h-2.257v-3.66L38 41.963l14.678 26.754v3.66z" fill="#C6CEDA"/><path d="M31.817 55.695L30.64 57.61l20.327 12.353 1.177-1.916-20.327-12.353z" fill="#C6CEDA"/><path d="M44.187 55.693L23.86 68.046l1.177 1.916 20.327-12.353-1.177-1.916zM7.516 50.697v-10.43L64.555 9.64l1.084 1.976L9.774 41.615v5.288l55.91-30.527 1.084 1.976L7.516 50.698z" fill="#C6CEDA"/><path d="M64.814 42.333L50.69 25.953l1.716-1.46L65.38 39.55l.847-.427V18.644l-2.1-7.32L53.66 4.037l-4.37 1.74V19.61h-2.258V4.252L53.953 1.5l12.115 8.432 2.416 8.555v22.027l-3.67 1.82z" fill="#C6CEDA"/><path d="M66.418 38.19l-6.966-10.385v-7.073h2.258v6.4l6.582 9.812-1.874 1.246zm-7.542-23.229l-6.199-3.694V2.77h2.258v7.219l5.092 3.042-1.151 1.931zm9.608 29.349h-2.258v24.7h2.258v-24.7zm-9.032 26.945H16.548V73.5h42.904v-2.245z" fill="#C6CEDA"/><path d="M73 73.5H61.71v-4.49h2.258v2.245h6.774v-2.246H73V73.5zm-58.71 0H3v-8.982h11.29V73.5zm-9.032-2.245h6.774v-4.491H5.258v4.49zm4.516-19.086H7.516v10.104h2.258V52.168zM39.13 38.696h-2.26v2.245h2.258v-2.245z" fill="#C6CEDA"/></svg>