<svg width="76" height="76" fill="none" xmlns="http://www.w3.org/2000/svg"><g clip-path="url(#clip0_950_16176)" fill="#C6CEDA"><path d="M59.624 74.25h-61.5a1.287 1.287 0 01-1.281-1.286V60.107c0-.707.576-1.286 1.281-1.286h5.881l2.19-2.198a1.27 1.27 0 01.91-.373h6.996l4.74-7.136c.244-.36.642-.578 1.064-.578H44.25c7.2 0 14.17 6.107 15.887 7.714h17.425c.398 0 .77.18 1.013.489.243.308.333.72.23 1.105-.038.167-4.253 16.406-19.18 16.406zM-.595 71.678h60.219c10.442 0 14.824-9.077 16.182-12.857H59.624c-.333 0-.666-.141-.91-.372-.076-.078-7.418-7.342-14.465-7.342H20.597l-4.74 7.136a1.29 1.29 0 01-1.064.578H7.631L5.44 61.02a1.266 1.266 0 01-.91.373H-.595v10.285z"/><path d="M57.062 69.107H1.968v-2.571h55.094c5.778 0 10.583-4.719 10.621-4.77l1.807 1.825c-.231.232-5.574 5.516-12.441 5.516h.013zM45.53 49.821h-2.562v11.572h2.562V49.82z"/><path d="M59.624 56.25H19.905v2.571h39.719V56.25zm-26.906-6.428h-2.563V3.535c0-.515.308-.99.795-1.183a1.262 1.262 0 011.396.283l41 41.143a1.285 1.285 0 01-.897 2.199H35.293v-2.572h34.069L32.718 6.647v43.187-.013z"/><path d="M27.593 43.393h-20.5c-.461 0-.897-.257-1.128-.669a1.299 1.299 0 01.039-1.311L30.36 2.854l2.166 1.376L9.425 40.821h18.168v2.572z"/><path d="M41.687 30.536h-10.25a1.287 1.287 0 01-1.282-1.286v-7.714c0-.707.577-1.286 1.281-1.286h10.25c.513 0 .987.309 1.18.797a1.299 1.299 0 01-.283 1.402l-2.934 2.944 2.934 2.944c.372.373.474.926.282 1.402a1.285 1.285 0 01-1.178.797zm-8.97-2.572H38.6l-1.653-1.658c-.5-.502-.5-1.312 0-1.813l1.653-1.659h-5.881v5.143-.013z"/></g><defs><clipPath id="clip0_950_16176"><path fill="#fff" d="M0 0h76v76H0z"/></clipPath></defs></svg>