<svg width="76" height="76" fill="none" xmlns="http://www.w3.org/2000/svg"><path d="M57.672 63.586h-2.203V73.5h2.203v-9.914zm0-26.438h-2.203V19.523c0-.605.495-1.101 1.101-1.101h9.231L64.7 16.219h-5.927a1.105 1.105 0 01-1.101-1.102V5.203H36.974l-16.755 7.325v1.488h20.93c.605 0 1.101.495 1.101 1.101v22.031h-2.203v-20.93h-20.93a1.105 1.105 0 01-1.101-1.1v-3.306c0-.44.264-.837.66-1.013l17.626-7.71c.143-.067.286-.089.44-.089h22.031c.606 0 1.102.496 1.102 1.102v9.914h5.508c.418 0 .793.231.98.605l2.203 4.407c.177.341.154.749-.044 1.068a1.1 1.1 0 01-.936.518h-9.914v16.534zM42.25 63.586h-2.203V73.5h2.203v-9.914z" fill="#C6CEDA"/><path d="M43.352 64.688h-6.61a1.105 1.105 0 01-1.101-1.102V52.57c0-.297.12-.572.32-.782l1.883-1.883v-1.752h-3.305a1.11 1.11 0 01-.43-.088l-15.421-6.61a1.106 1.106 0 01-.672-1.013v-3.304c0-.606.495-1.102 1.101-1.102h24.235c.605 0 1.101.496 1.101 1.102v26.437c0 .606-.496 1.102-1.101 1.102v.01zm-5.508-2.204h4.406V38.25H20.219v1.476l14.551 6.235h4.175c.606 0 1.102.496 1.102 1.102v3.304c0 .298-.121.573-.32.782l-1.883 1.884v9.462-.01zm20.929 2.204h-4.406a1.105 1.105 0 01-1.101-1.102V37.148c0-.605.495-1.101 1.101-1.101h13.219a1.1 1.1 0 01.936.518c.198.32.22.727.044 1.068l-2.203 4.406a1.1 1.1 0 01-.98.606h-5.508v20.93c0 .606-.496 1.102-1.102 1.102v.01zm-3.304-2.204h2.203v-20.93c0-.605.496-1.1 1.101-1.1H64.7l1.1-2.204H55.47v24.234zM49.96 16.219h-2.202v2.203h2.203v-2.203zm0 4.406h-2.202v2.203h2.203v-2.203zm0 4.406h-2.202v2.203h2.203v-2.203zm0 4.407h-2.202v2.203h2.203v-2.203zm0 4.406h-2.202v2.203h2.203v-2.203zm0 4.406h-2.202v2.203h2.203V38.25zm0 4.406h-2.202v2.203h2.203v-2.203zm0 4.407h-2.202v2.203h2.203v-2.203zm0 4.406h-2.202v2.203h2.203v-2.203zm0 4.406h-2.202v2.203h2.203v-2.203zm0 4.406h-2.202v2.203h2.203v-2.203zm0 4.407h-2.202v2.203h2.203v-2.204zm0 4.406h-2.202v2.203h2.203v-2.203z" fill="#C6CEDA"/><path d="M19.117 38.25C12.431 38.25 7 32.82 7 26.133c0-6.687 5.43-12.117 12.117-12.117 6.687 0 12.117 5.43 12.117 12.117 0 6.686-5.43 12.117-12.117 12.117zm0-22.031c-5.464 0-9.914 4.45-9.914 9.914 0 5.464 4.45 9.914 9.914 9.914 5.464 0 9.914-4.45 9.914-9.914 0-5.464-4.45-9.914-9.914-9.914z" fill="#C6CEDA"/><path d="M19.117 32.742a6.615 6.615 0 01-6.61-6.61 6.615 6.615 0 016.61-6.609 6.615 6.615 0 016.61 6.61 6.615 6.615 0 01-6.61 6.61zm0-11.015a4.405 4.405 0 00-4.406 4.406 4.405 4.405 0 004.406 4.406 4.405 4.405 0 004.406-4.406 4.405 4.405 0 00-4.406-4.406z" fill="#C6CEDA"/></svg>