<svg width="76" height="76" fill="none" xmlns="http://www.w3.org/2000/svg"><path d="M76 74H61.75v-2.4h11.875v-4.8c-.035-.732-1.508-4.332-2.802-7.524C67.996 52.316 64.125 42.8 64.125 38V26h-19v12c0 3.108-3.265 13.584-3.645 14.76l-2.269-.732c.986-3.12 3.527-11.724 3.527-14.04v-14.4h23.75v14.4c0 4.332 3.776 13.596 6.52 20.364 2.007 4.944 2.98 7.368 2.98 8.436v7.2L76 74z" fill="#C6CEDA"/><path d="M65.313 36.8H43.936v2.4h21.376v-2.4zM30.875 51.2H28.5v-8.4H16.625v8.4H14.25V40.4h16.625v10.8zm9.5 22.8H0V54.8h59.375v9.6H57v-7.2H2.375v14.4h38V74z" fill="#C6CEDA"/><path d="M21.375 30.8H19v10.8h2.375V30.8zm4.75 4.8H23.75v6h2.375v-6zM2.375 52.4H0V11.6h11.875v24.708l4.406 4.44-1.687 1.704-5.094-5.16V14H2.375v38.4zm34.438 4.8H7.125V50h29.688v7.2zM9.5 54.8h24.938v-2.4H9.5v2.4zm11.875-9.6H19v2.4h2.375v-2.4zm4.75 0H23.75v2.4h2.375v-2.4z" fill="#C6CEDA"/><path d="M7.125 28.4H4.75v2.4h2.375v-2.4zm0 4.8H4.75v2.4h2.375v-2.4zm0 4.8H4.75v2.4h2.375V38zm3.563-21.6h-9.5v2.4h9.5v-2.4zm0 4.8h-9.5v2.4h9.5v-2.4zm54.625 7.2H43.936v2.4h21.376v-2.4zm9.5 38.4H61.75v2.4h13.063v-2.4zm-62.938 0H4.75v2.4h7.125v-2.4zm9.5 0H14.25v2.4h7.125v-2.4zm9.5 0H23.75v2.4h7.125v-2.4zm9.5 0H33.25v2.4h7.125v-2.4zm-9.5-57.6c-2.53 0-4.346-2.628-4.548-2.928-.32-.48-1.496-1.872-2.577-1.872-1.08 0-2.316 1.476-2.577 1.872-.202.3-2.019 2.928-4.548 2.928-2.53 0-4.346-2.628-4.548-2.928C11.757 5.792 10.58 4.4 9.5 4.4V2c2.53 0 4.346 2.628 4.548 2.928.32.48 1.496 1.872 2.577 1.872 1.08 0 2.316-1.476 2.577-1.872C19.404 4.628 21.22 2 23.75 2c2.53 0 4.346 2.628 4.548 2.928.32.48 1.496 1.872 2.577 1.872 1.08 0 2.316-1.476 2.577-1.872C33.654 4.628 35.47 2 38 2v2.4c-1.104 0-2.316 1.476-2.577 1.872-.202.3-2.019 2.928-4.548 2.928zM7.125 6.8H4.75C4.75 4.148 6.876 2 9.5 2v2.4c-1.306 0-2.375 1.08-2.375 2.4z" fill="#C6CEDA"/><path d="M7.125 6.8H4.75v2.4h2.375V6.8zm61.75 14.4c-2.53 0-4.346-2.628-4.548-2.928-.32-.48-1.496-1.872-2.577-1.872V14c2.53 0 4.346 2.628 4.548 2.928.32.48 1.496 1.872 2.577 1.872 1.08 0 2.316-1.476 2.577-1.872C71.654 16.628 73.47 14 76 14v2.4c-1.104 0-2.316 1.476-2.577 1.872-.202.3-2.019 2.928-4.548 2.928zm-9.5-2.4H57c0-2.652 2.126-4.8 4.75-4.8v2.4c-1.306 0-2.375 1.08-2.375 2.4zm0 0H57v2.4h2.375v-2.4z" fill="#C6CEDA"/><path d="M61.75 14h-7.125v2.4h7.125V14zm-9.5 4.8h-2.375c0-2.652 2.126-4.8 4.75-4.8v2.4c-1.306 0-2.375 1.08-2.375 2.4zm0 0h-2.375v2.4h2.375v-2.4zM59.375 74H42.75v-7.2h16.625V74zm-14.25-2.4H57v-2.4H45.125v2.4z" fill="#C6CEDA"/></svg>