<svg width="76" height="76" fill="none" xmlns="http://www.w3.org/2000/svg"><g clip-path="url(#clip0_950_16083)" fill="#C6CEDA"><path d="M74.999 56.25H.687c-2.115 0-3.844-1.736-3.844-3.857V36.964c0-2.121 1.73-3.857 3.844-3.857h74.312c2.114 0 3.844 1.736 3.844 3.857v15.429c0 2.121-1.73 3.857-3.844 3.857zM.687 35.679c-.705 0-1.282.578-1.282 1.285v15.429c0 .707.577 1.286 1.282 1.286h74.312c.705 0 1.281-.579 1.281-1.286V36.964c0-.707-.576-1.285-1.281-1.285H.687z"/><path d="M72.436 51.107H59.624a1.287 1.287 0 01-1.281-1.286V39.536c0-.707.576-1.286 1.281-1.286h12.812c.705 0 1.282.579 1.282 1.286V49.82c0 .708-.577 1.286-1.282 1.286zm-11.53-2.571h10.25V40.82h-10.25v7.715zm-44.845 2.571H3.25a1.287 1.287 0 01-1.281-1.286V39.536c0-.707.576-1.286 1.281-1.286h12.812c.705 0 1.282.579 1.282 1.286V49.82c0 .708-.577 1.286-1.282 1.286zm-11.53-2.571h10.25V40.82H4.53v7.715zM55.78 38.25H19.905v2.571H55.78V38.25zm0 5.143H19.905v2.571H55.78v-2.571zm0 5.143H19.905v2.571H55.78v-2.571zm14.094-12.857H5.812a1.28 1.28 0 01-1.218-1.685l7.688-23.155c.18-.527.666-.875 1.217-.875h48.688a1.3 1.3 0 011.217.875L71.09 33.98a1.28 1.28 0 01-1.217 1.684v.014zM7.592 33.107h60.501l-6.829-20.571H14.421L7.593 33.107z"/><path d="M63.468 15.107h-51.25v2.572h51.25v-2.572zm8.968 59.143H57.061a1.287 1.287 0 01-1.28-1.286V62.68c0-.708.576-1.286 1.28-1.286h15.375c.705 0 1.282.578 1.282 1.285v10.286c0 .707-.577 1.286-1.282 1.286zm-14.093-2.572h12.812v-7.714H58.343v7.715zM18.624 74.25H3.249a1.287 1.287 0 01-1.281-1.286V62.68c0-.708.576-1.286 1.281-1.286h15.375c.705 0 1.281.578 1.281 1.285v10.286c0 .707-.576 1.286-1.281 1.286zM4.53 71.678h12.813v-7.714H4.53v7.715zM48.093 7.393H45.53V4.82H30.155v2.572h-2.562V3.536c0-.707.576-1.286 1.281-1.286h17.938c.704 0 1.28.579 1.28 1.286v3.857z"/><path d="M73.718 63.964H1.968c-2.832 0-5.125-2.301-5.125-5.142h2.562a2.575 2.575 0 002.563 2.571h71.75a2.575 2.575 0 002.562-2.572h2.563c0 2.842-2.294 5.143-5.125 5.143zm5.125 7.715h-82v2.571h82v-2.57z"/></g><defs><clipPath id="clip0_950_16083"><path fill="#fff" d="M0 0h76v76H0z"/></clipPath></defs></svg>