<svg width="76" height="76" fill="none" xmlns="http://www.w3.org/2000/svg"><g clip-path="url(#clip0_950_16101)" fill="#C6CEDA"><path d="M51.593 59.02h-27.5v-2.77h24.75V5.02h-52.25v51.23h5.5v2.77h-8.25V2.25h57.75v56.77z"/><path d="M46.093 39.635H4.843v2.769h41.25v-2.77zm0 5.538h-22v2.77h22v-2.77zm-16.5-12.461c-.206 0-.413-.042-.605-.139a1.402 1.402 0 01-.77-1.246v-4.154h-33v-2.77h34.375c.756 0 1.375.624 1.375 1.385v2.714l8.759-6.867-8.76-6.868v2.714c0 .761-.618 1.384-1.374 1.384H-4.782v-2.769h33v-4.154c0-.526.302-1.01.77-1.246a1.339 1.339 0 011.444.152l12.375 9.693c.33.263.536.664.536 1.094 0 .429-.193.83-.537 1.093l-12.374 9.693c-.248.194-.55.29-.84.29zm-27.5 18h-8.25V39.635h8.25v11.077zm-5.5-2.77h2.75v-5.538h-2.75v5.538zm85.25 5.538h-8.25v-8.307h8.25v8.308zm-5.5-2.768h2.75v-2.77h-2.75v2.77zM13.093 74.25c-5.308 0-9.625-4.348-9.625-9.692 0-5.345 4.317-9.693 9.625-9.693 5.307 0 9.625 4.348 9.625 9.693 0 5.344-4.318 9.692-9.625 9.692zm0-16.615c-3.795 0-6.875 3.101-6.875 6.923 0 3.821 3.08 6.923 6.875 6.923s6.875-3.102 6.875-6.923c0-3.822-3.08-6.924-6.875-6.924z"/><path d="M13.093 67.327a2.76 2.76 0 002.75-2.77 2.76 2.76 0 00-2.75-2.768 2.76 2.76 0 00-2.75 2.769 2.76 2.76 0 002.75 2.769zm52.25 6.923c-5.308 0-9.625-4.348-9.625-9.692 0-5.345 4.317-9.693 9.625-9.693 5.307 0 9.625 4.348 9.625 9.693 0 5.344-4.318 9.692-9.625 9.692zm0-16.615c-3.795 0-6.875 3.101-6.875 6.923 0 3.821 3.08 6.923 6.875 6.923s6.875-3.102 6.875-6.923c0-3.822-3.08-6.924-6.875-6.924z"/><path d="M65.343 67.327a2.76 2.76 0 002.75-2.77 2.76 2.76 0 00-2.75-2.768 2.76 2.76 0 00-2.75 2.769 2.76 2.76 0 002.75 2.769zm16.5-8.307h-5.5v-2.77h2.75V41.42l-11.757-18.4H51.593v33.23h2.75v2.77h-5.5V20.25h20.006l12.994 20.368v18.401z"/><path d="M80.468 39.635h-24.75v2.769h24.75v-2.77z"/><path d="M57.093 53.48h-2.75V25.79h16.5v2.769h-13.75V53.48z"/><path d="M62.593 45.173h-2.75v2.77h2.75v-2.77zm19.25 26.307h-88v2.77h88v-2.77zM22.718 29.942h-2.75v2.77h2.75v-2.77zm-5.5 0h-2.75v2.77h2.75v-2.77zm-5.5 0h-2.75v2.77h2.75v-2.77z"/></g><defs><clipPath id="clip0_950_16101"><path fill="#fff" d="M0 0h76v76H0z"/></clipPath></defs></svg>