<svg width="76" height="76" fill="none" xmlns="http://www.w3.org/2000/svg"><path d="M44.593 74.25h-1.125V34.875c0-11.554 11.148-21.78 11.621-22.207l.799-.72 4.466 4.466V4.5H48.44l4.579 4.579-.945.787c-.135.113-13.095 11.104-13.095 25.009h-2.25c0-13.939-12.96-24.896-13.095-25.009l-.945-.787L27.268 4.5H15.354v11.914l4.466-4.467.799.72c.473.428 11.621 10.654 11.621 22.208V74.25h-1.125c-10.271 0-29.25-14.85-29.25-36 0-7.054 2.036-13.883 5.895-19.744l1.879 1.238A33.637 33.637 0 004.115 38.25c0 20.093 17.168 32.636 25.875 33.683V34.875c0-8.887-7.638-17.302-10.113-19.8l-6.762 6.761V2.25h19.587l-6.705 6.705c2.474 2.295 9.18 9.146 11.857 18.304C40.532 18.1 47.237 11.25 49.712 8.955L43.005 2.25h19.587v19.586l-6.762-6.761c-2.475 2.498-10.113 10.924-10.113 19.8v37.058c8.707-1.047 25.875-13.59 25.875-33.683a33.583 33.583 0 00-5.524-18.506l1.879-1.238c3.859 5.861 5.895 12.69 5.895 19.744 0 21.15-18.979 36-29.25 36z" fill="#C6CEDA"/></svg>