<svg width="76" height="76" fill="none" xmlns="http://www.w3.org/2000/svg"><path d="M23.75 73h-2.375v-8.27c0-9.465 5.284-11.462 10.866-13.577 2.066-.78 4.203-1.595 6.353-2.812l1.175 2.056c-2.303 1.311-4.63 2.197-6.685 2.965-5.617 2.127-9.334 3.533-9.334 11.367V73zM76 73h-2.375v-8.27c0-7.835-3.717-9.24-9.334-11.368-2.054-.78-4.382-1.654-6.685-2.965l1.175-2.056c2.15 1.217 4.287 2.032 6.353 2.812C70.728 53.268 76 55.265 76 64.729V73z" fill="#C6CEDA"/><path d="M53.675 55.525l-4.987-2.481-4.988 2.48-6.044-6.013 3.337-4.987 7.683 1.276 7.683-1.276 3.337 4.987-6.045 6.014h.024zm-4.987-5.116l4.512 2.245 3.456-3.439-1.413-2.103-6.567 1.087-6.567-1.087-1.413 2.103 3.455 3.439 4.513-2.245h.023z" fill="#C6CEDA"/><path d="M55.813 41.098h-2.376v4.726h2.376v-4.726zm-11.875 0h-2.376v4.726h2.376v-4.726zm5.937 20.086H47.5v2.363h2.375v-2.363zm0-4.726H47.5v2.363h2.375v-2.363z" fill="#C6CEDA"/><path d="M48.688 43.461c-.155 0-3.872-.012-6.472-1.312l-.131-.07c-.166-.107-4.014-2.754-5.26-11.45v-.165l-.013-4.726h2.376v4.643c1.02 6.995 3.8 9.405 4.18 9.7 2.09.993 5.284 1.017 5.32 1.017.035 0 3.23-.012 5.32-1.016.368-.296 3.158-2.718 4.18-9.7v-4.645h2.374v4.892c-1.258 8.696-5.118 11.343-5.284 11.45l-.13.07c-2.601 1.288-6.306 1.312-6.472 1.312h.011z" fill="#C6CEDA"/><path d="M60.563 25.738h-2.376c0-6.535-2.933-9.453-9.5-9.453-6.566 0-9.5 2.918-9.5 9.453h-2.374c0-7.846 3.99-11.816 11.874-11.816 7.886 0 11.876 3.97 11.876 11.816z" fill="#C6CEDA"/><path d="M54.684 29.389L42.81 24.662l-4.275 2.127-1.068-2.115 5.225-2.6 11.875 4.727 4.275-2.127 1.068 2.115-5.225 2.6zM33.25 65.91h-2.375V73h2.375v-7.09zm33.25 0h-2.375V73H66.5v-7.09zM19.582 53.93C12.267 49.558 0 38.995 0 17.467V9.196h8.063L24.937 2l17.089 7.29-.939 2.174-16.161-6.888L8.55 11.559H2.375v5.908c0 20.37 11.543 30.33 18.43 34.442l-1.223 2.02z" fill="#C6CEDA"/><path d="M24.938 48.33l-.535-.26c-.178-.084-17.278-8.827-17.278-28.228v-3.545h4.489l13.323-6.026 11.175 5.057-.986 2.15-10.188-4.608-12.802 5.79H9.5v1.182c0 16.045 12.67 24.233 15.438 25.829 1.46-.828 5.628-3.415 9.238-7.822l1.84 1.5c-4.773 5.814-10.318 8.614-10.544 8.72l-.535.26z" fill="#C6CEDA"/><path d="M26.125 18.648H23.75v2.363h2.375v-2.363zm0 4.727H23.75v2.363h2.375v-2.363zm0 4.725H23.75v2.364h2.375V28.1z" fill="#C6CEDA"/></svg>