<svg width="76" height="76" fill="none" xmlns="http://www.w3.org/2000/svg"><path d="M47.125 33.143v-3.627c0-4.403-3.582-7.985-7.984-7.985h-2.282c-4.402 0-7.984 3.582-7.984 7.985v3.627a3.411 3.411 0 00-2.281 3.216v13.688a3.432 3.432 0 003.422 3.422h15.968a3.432 3.432 0 003.422-3.422V36.359c0-1.482-.958-2.737-2.281-3.216zm-10.266-9.33h2.282a5.705 5.705 0 015.703 5.703v3.422H31.156v-3.422a5.705 5.705 0 015.703-5.703zm10.266 26.234c0 .627-.513 1.14-1.14 1.14h-15.97c-.627 0-1.14-.513-1.14-1.14V36.359c0-.627.513-1.14 1.14-1.14h15.97c.627 0 1.14.513 1.14 1.14v13.688z" fill="#C6CEDA"/><path d="M38 38.64a2.288 2.288 0 00-2.281 2.282c0 .844.467 1.574 1.14 1.962v4.882h2.282v-4.882c.673-.4 1.14-1.118 1.14-1.962A2.288 2.288 0 0038 38.64zm-18.25 0v-2.28h-9.285c-.513-1.962-2.28-3.422-4.402-3.422A4.561 4.561 0 001.5 37.5a4.561 4.561 0 004.563 4.563c2.121 0 3.889-1.46 4.402-3.422h9.285zM6.062 39.782a2.288 2.288 0 01-2.28-2.281 2.288 2.288 0 012.28-2.281 2.288 2.288 0 012.283 2.28 2.288 2.288 0 01-2.281 2.281zm63.876-6.844c-2.122 0-3.89 1.46-4.403 3.421H56.25v2.282h9.285c.513 1.962 2.28 3.422 4.403 3.422A4.561 4.561 0 0074.5 37.5a4.561 4.561 0 00-4.563-4.563zm0 6.843a2.288 2.288 0 01-2.282-2.281 2.288 2.288 0 012.281-2.281A2.288 2.288 0 0172.22 37.5a2.288 2.288 0 01-2.281 2.281zM61.953 55.91v-5.863a5.705 5.705 0 00-5.703-5.703h-4.563v2.281h4.563a3.432 3.432 0 013.422 3.422v5.863c-1.962.513-3.422 2.28-3.422 4.403a4.561 4.561 0 004.563 4.562 4.561 4.561 0 004.562-4.563c0-2.121-1.46-3.889-3.422-4.402zm-1.14 6.684a2.288 2.288 0 01-2.282-2.282 2.288 2.288 0 012.282-2.28 2.288 2.288 0 012.28 2.28 2.288 2.288 0 01-2.28 2.282zM14.047 50.047v5.863c-1.962.513-3.422 2.28-3.422 4.403a4.561 4.561 0 004.563 4.562 4.561 4.561 0 004.562-4.563c0-2.121-1.46-3.889-3.422-4.402v-5.863a3.432 3.432 0 013.422-3.422h4.563v-2.281H19.75a5.705 5.705 0 00-5.703 5.703zm3.422 10.266a2.288 2.288 0 01-2.282 2.28 2.288 2.288 0 01-2.28-2.28 2.288 2.288 0 012.28-2.282 2.288 2.288 0 012.282 2.282zm44.484-35.36V19.09c1.962-.513 3.422-2.28 3.422-4.402a4.561 4.561 0 00-4.563-4.563 4.561 4.561 0 00-4.562 4.563c0 2.121 1.46 3.889 3.422 4.402v5.863a3.432 3.432 0 01-3.422 3.422h-4.563v2.281h4.563a5.705 5.705 0 005.703-5.703zm-3.422-10.265a2.288 2.288 0 012.282-2.282 2.288 2.288 0 012.28 2.281 2.288 2.288 0 01-2.28 2.282 2.288 2.288 0 01-2.282-2.282zM16.328 24.953V19.09c1.962-.513 3.422-2.28 3.422-4.402a4.561 4.561 0 00-4.563-4.563 4.561 4.561 0 00-4.562 4.563c0 2.121 1.46 3.889 3.422 4.402v5.863a5.705 5.705 0 005.703 5.703h4.563v-2.281H19.75a3.432 3.432 0 01-3.422-3.422zm-3.422-10.265a2.288 2.288 0 012.281-2.282 2.288 2.288 0 012.282 2.281 2.288 2.288 0 01-2.282 2.282 2.288 2.288 0 01-2.28-2.282zm18.25 41.062a4.561 4.561 0 00-4.562 4.563c0 2.121 1.46 3.889 3.422 4.402V74h2.28v-9.285c1.963-.513 3.423-2.28 3.423-4.403a4.561 4.561 0 00-4.563-4.562zm0 6.844a2.288 2.288 0 01-2.281-2.282 2.288 2.288 0 012.281-2.28 2.288 2.288 0 012.282 2.28 2.288 2.288 0 01-2.282 2.282zm13.688-6.844a4.561 4.561 0 00-4.563 4.563c0 2.121 1.46 3.889 3.422 4.402V74h2.281v-9.285c1.962-.513 3.422-2.28 3.422-4.403a4.561 4.561 0 00-4.562-4.562zm0 6.844a2.288 2.288 0 01-2.282-2.282 2.288 2.288 0 012.282-2.28 2.288 2.288 0 012.281 2.28 2.288 2.288 0 01-2.281 2.282zM31.156 19.25a4.561 4.561 0 004.563-4.563c0-2.121-1.46-3.889-3.422-4.402V1h-2.281v9.285c-1.962.513-3.422 2.28-3.422 4.402a4.561 4.561 0 004.562 4.563zm0-6.844a2.288 2.288 0 012.282 2.281 2.288 2.288 0 01-2.282 2.282 2.288 2.288 0 01-2.281-2.282 2.288 2.288 0 012.281-2.28zm14.828-2.121V1h-2.28v9.285c-1.963.513-3.423 2.28-3.423 4.402a4.561 4.561 0 004.563 4.563 4.561 4.561 0 004.562-4.563c0-2.121-1.46-3.889-3.422-4.402zm-1.14 6.684a2.288 2.288 0 01-2.282-2.282 2.288 2.288 0 012.282-2.28 2.288 2.288 0 012.281 2.28 2.288 2.288 0 01-2.281 2.282zm9.125 19.391h-2.282v2.28h2.282v-2.28zm-29.656 0H22.03v2.28h2.282v-2.28z" fill="#C6CEDA"/></svg>